<svg version="1.1" id="Layer_1" xmlns="http://www.w3.org/2000/svg" xmlns:xlink="http://www.w3.org/1999/xlink" x="0px" y="0px"
	 width="100%" viewBox="0 0 1280 1280" enable-background="new 0 0 1280 1280" xml:space="preserve">
<path fill="#C99F2C" opacity="1.000000" stroke="none" 
	d="
M1027.842285,255.928375 
	C1032.030029,278.062836 1031.323853,300.462341 1030.822021,322.772614 
	C1030.539429,335.331512 1028.573486,347.872620 1027.010376,360.377319 
	C1025.208130,374.795105 1023.484314,389.250519 1020.853271,403.528717 
	C1018.419800,416.734497 1014.895386,429.742828 1011.739319,442.811066 
	C1006.943604,462.668640 1000.019531,481.805176 991.893982,500.521118 
	C986.436523,513.091614 981.565674,525.969299 975.283142,538.115112 
	C968.046936,552.104553 959.942200,565.691711 951.484375,578.989075 
	C942.525818,593.073914 932.441772,606.427673 919.848267,617.566956 
	C910.814331,625.557739 901.544189,633.293213 892.175659,640.891235 
	C878.229980,652.201355 864.163879,663.365417 850.034851,674.446106 
	C840.619446,681.830139 830.937988,688.874512 821.504333,696.235901 
	C815.319519,701.062256 809.414429,706.245361 803.294312,711.156799 
	C795.042969,717.778442 786.689026,724.271973 778.408569,730.857605 
	C767.162659,739.801636 755.971375,748.814575 744.705139,757.732910 
	C737.180603,763.689209 729.529175,769.485229 722.003540,775.440247 
	C715.363953,780.694153 708.861816,786.121948 702.223938,791.378174 
	C692.260864,799.267273 682.203674,807.037537 672.238586,814.924194 
	C659.731995,824.822327 647.291687,834.804077 634.797363,844.717712 
	C624.118896,853.190552 613.401855,861.614746 602.706726,870.066528 
	C592.768799,877.919983 582.846436,885.793030 572.898560,893.633789 
	C568.645203,896.986267 566.306641,896.843567 562.471008,893.009644 
	C546.339600,876.885498 530.240417,860.729126 514.076050,844.638184 
	C512.236511,842.807068 510.077667,841.292603 508.037262,839.668579 
	C505.181946,837.395691 505.486237,835.207886 508.042267,832.907410 
	C517.018066,824.829041 525.959045,816.711975 534.920471,808.617615 
	C541.428894,802.739014 548.221619,797.145386 554.408203,790.946350 
	C568.544250,776.781982 582.518066,762.449463 596.302917,747.943115 
	C606.088562,737.645264 615.673340,727.137146 624.933960,716.367126 
	C630.649414,709.720093 635.876709,702.601013 640.804382,695.341797 
	C647.432617,685.577332 653.700806,675.559326 659.869812,665.494690 
	C668.801575,650.922974 674.920593,635.180786 677.840271,618.343262 
	C678.622437,613.832703 677.827759,609.048706 677.642944,603.894104 
	C680.829285,600.635132 684.355408,598.099121 687.394409,595.073792 
	C712.490662,570.091187 737.535400,545.056335 762.475952,519.918457 
	C765.256287,517.116089 768.080811,515.382507 772.412476,515.869873 
	C782.566589,522.704712 792.647156,528.484131 804.550232,531.308655 
	C821.256775,535.273132 836.873169,532.131287 851.337158,524.597778 
	C869.424438,515.177124 881.670959,500.508820 886.593994,479.934357 
	C889.814758,466.473907 888.922791,453.663025 885.156189,440.622559 
	C882.004333,429.710297 874.923889,421.432770 868.237244,412.969574 
	C870.256897,411.581818 872.098389,410.430420 873.582031,408.926025 
	C891.215881,391.047302 908.702148,373.022034 926.422546,355.229797 
	C939.317322,342.282715 952.618591,329.740753 965.529175,316.808960 
	C981.389648,300.922302 997.043213,284.828827 1012.760132,268.799164 
	C1016.250427,265.239410 1019.517456,261.452423 1023.129150,258.024963 
	C1024.304688,256.909332 1026.249390,256.604187 1027.842285,255.928375 
z"/>
<path fill="#E6C657" opacity="1.000000" stroke="none" 
	d="
M1027.756226,255.573318 
	C1026.249390,256.604187 1024.304688,256.909332 1023.129150,258.024963 
	C1019.517456,261.452423 1016.250427,265.239410 1012.760132,268.799164 
	C997.043213,284.828827 981.389648,300.922302 965.529175,316.808960 
	C952.618591,329.740753 939.317322,342.282715 926.422546,355.229797 
	C908.702148,373.022034 891.215881,391.047302 873.582031,408.926025 
	C872.098389,410.430420 870.256897,411.581818 867.931885,412.831726 
	C861.900757,408.850708 856.825134,404.397064 851.075073,401.130646 
	C838.710571,394.106812 824.937378,392.475281 811.188721,394.275909 
	C802.566650,395.405029 793.798096,398.121765 785.962646,401.916901 
	C774.214111,407.607330 765.018372,416.777191 758.399353,428.178741 
	C752.646484,438.088257 749.322754,448.698608 748.976257,460.319946 
	C748.614502,472.449738 750.313660,484.229462 756.224792,494.706451 
	C760.508911,502.299591 766.703979,508.814545 772.046875,515.810303 
	C768.080811,515.382507 765.256287,517.116089 762.475952,519.918457 
	C737.535400,545.056335 712.490662,570.091187 687.394409,595.073792 
	C684.355408,598.099121 680.829285,600.635132 677.301147,603.621216 
	C665.958801,606.477905 654.399536,607.961975 643.846802,612.046570 
	C631.679138,616.756348 619.700684,622.726135 608.902771,630.018494 
	C593.598816,640.353943 578.989380,651.860046 564.931580,663.859863 
	C549.842651,676.739807 535.295837,690.334412 521.330872,704.428040 
	C508.714081,717.161011 497.180450,730.969177 485.209961,744.339722 
	C477.436432,753.022339 469.689270,761.729675 462.031036,770.513794 
	C459.694427,773.193909 457.659119,776.141174 455.546661,779.010864 
	C453.322021,782.032959 450.835938,782.942017 447.926819,779.993225 
	C440.561401,772.527283 433.396637,764.855957 425.861298,757.566895 
	C416.465424,748.477905 406.941467,739.505310 397.145569,730.853027 
	C392.574646,726.815613 392.406372,723.235901 397.037262,717.342712 
	C405.554443,706.503906 413.704590,695.377502 422.152679,684.483398 
	C430.919464,673.178345 439.965088,662.089050 448.692444,650.754211 
	C458.185730,638.424561 467.432922,625.905640 476.824951,613.497681 
	C486.130096,601.204529 495.523682,588.978210 504.799927,576.663391 
	C511.913055,567.220398 518.802917,557.608337 525.972961,548.209412 
	C536.810059,534.003479 547.827637,519.935364 558.725098,505.775208 
	C567.832031,493.941681 576.865784,482.051910 585.952026,470.202423 
	C595.517273,457.728210 605.124756,445.286438 614.679443,432.804230 
	C623.452454,421.343140 632.311401,409.944580 640.893921,398.341980 
	C651.828247,383.560059 662.956238,368.850983 676.910645,356.846100 
	C687.792664,347.484344 699.659485,339.217377 711.441467,330.967743 
	C720.555847,324.585968 729.851135,318.273956 739.718384,313.199280 
	C755.219299,305.227203 771.120911,297.978271 787.135254,291.078583 
	C799.335632,285.822052 811.771484,280.917603 824.466003,277.048767 
	C842.757935,271.474091 861.243164,266.365662 879.905457,262.229553 
	C893.663513,259.180359 907.808289,257.771088 921.833557,256.065704 
	C933.040466,254.703064 944.309387,253.523376 955.582092,253.102280 
	C974.815674,252.383804 994.073059,252.253754 1013.322266,252.044388 
	C1017.358582,252.000488 1021.417664,252.574524 1025.431274,253.120331 
	C1026.257324,253.232635 1026.927979,254.489136 1027.756226,255.573318 
z"/>
<path fill="#CA9F2D" opacity="1.000000" stroke="none" 
	d="
M720.235352,954.267090 
	C707.668640,965.177246 695.306580,975.775757 683.054443,986.499756 
	C673.742554,994.650208 664.645020,1003.045898 655.317139,1011.177612 
	C643.618896,1021.375671 631.772644,1031.403687 620.013062,1041.531616 
	C616.911072,1044.203247 613.971252,1047.067261 610.813293,1049.668335 
	C607.993591,1051.990967 605.873779,1051.942017 604.877258,1047.718262 
	C601.662537,1034.091797 598.260010,1020.509644 594.982788,1006.897705 
	C592.104919,994.944580 589.276001,982.979614 586.465820,971.010376 
	C582.952271,956.045776 579.416260,941.085876 576.031860,926.091919 
	C575.102417,921.974609 574.232849,917.744873 574.214172,913.562805 
	C574.204834,911.481567 575.662231,908.733459 577.341003,907.407532 
	C593.177612,894.900330 609.323364,882.784180 625.145935,870.259705 
	C642.426575,856.581055 659.355957,842.458740 676.630005,828.771606 
	C693.005798,815.796143 709.720642,803.249146 726.120178,790.303101 
	C744.678528,775.652710 763.075012,760.796814 781.488892,745.964539 
	C785.937927,742.380859 790.178467,738.538452 795.244385,734.188721 
	C795.964600,736.052063 797.036194,737.439880 796.912109,738.710876 
	C795.036133,757.922180 793.063049,777.124573 790.987671,796.315552 
	C789.426575,810.750305 787.742798,825.172363 786.011902,839.587891 
	C784.067688,855.779358 782.147278,871.976013 779.938110,888.132385 
	C778.936157,895.459961 776.559631,902.302429 770.827393,907.587830 
	C760.815613,916.819214 750.983765,926.245544 740.989563,935.496277 
	C734.232544,941.750610 727.326599,947.844055 720.235352,954.267090 
z"/>
<path fill="#E6C657" opacity="1.000000" stroke="none" 
	d="
M277.778748,650.716431 
	C282.198303,645.554871 286.395447,640.681213 290.530182,635.755188 
	C298.970795,625.699280 307.389160,615.624573 315.794800,605.539368 
	C321.953796,598.149719 328.080170,590.732849 334.217316,583.325012 
	C343.892700,571.646179 353.384827,559.809387 363.291138,548.329895 
	C372.464020,537.700439 381.713135,527.081116 391.701996,517.242493 
	C395.080109,513.915283 400.657043,512.295105 405.524719,511.131500 
	C412.440765,509.478302 419.628143,508.954803 426.702911,507.972656 
	C433.962891,506.964813 441.231354,506.017303 448.488007,504.986267 
	C457.648834,503.684723 466.787781,502.221008 475.961182,501.017944 
	C486.942963,499.577728 497.959564,498.404572 508.945618,496.995148 
	C520.707275,495.486206 532.447937,493.813629 544.207825,492.290802 
	C545.199158,492.162415 546.651489,492.291138 547.193054,492.910065 
	C547.748901,493.545227 547.809509,495.077179 547.448547,495.953827 
	C546.719971,497.723022 545.721619,499.439423 544.551208,500.959320 
	C532.066772,517.171021 519.447205,533.279175 507.028778,549.540955 
	C498.070068,561.272339 489.489838,573.293152 480.505646,585.004456 
	C467.753906,601.627014 454.652802,617.982300 441.954926,634.645325 
	C432.736603,646.742188 424.054871,659.246887 414.899689,671.393250 
	C407.567902,681.120422 399.876556,690.576294 392.359253,700.163940 
	C388.849274,704.640564 384.642578,708.762573 382.053436,713.724548 
	C378.169861,721.167114 372.448303,719.919006 366.263672,718.722290 
	C352.774719,716.112122 339.272919,713.568176 325.773773,711.010803 
	C309.723541,707.970276 293.670746,704.943237 277.618835,701.911682 
	C266.165009,699.748535 254.710739,697.587463 241.935455,695.176147 
	C251.853088,678.626587 265.841461,665.687378 277.778748,650.716431 
z"/>
<path fill="#F8D245" opacity="1.000000" stroke="none" 
	d="
M419.007202,777.875427 
	C424.887939,783.636353 430.854645,789.314880 436.549652,795.253845 
	C437.333557,796.071350 437.428253,798.666565 436.727631,799.618591 
	C429.423126,809.544250 421.906769,819.314453 414.417603,829.103577 
	C402.391602,844.822693 392.039124,861.617554 383.383728,879.369995 
	C377.193695,892.065918 371.916595,905.210876 366.395416,918.224731 
	C365.562286,920.188477 365.620087,922.530334 365.195404,925.127808 
	C382.493073,919.018921 399.112335,912.384277 414.235504,902.358643 
	C425.244904,895.060120 436.817291,888.581482 447.583771,880.953979 
	C459.362488,872.609375 470.508209,863.370544 481.916412,854.504272 
	C483.841492,853.008118 485.610229,851.296692 487.609650,849.913879 
	C490.131653,848.169678 492.309326,848.737671 494.496277,850.967102 
	C502.890320,859.524902 511.424500,867.945312 519.709534,876.715820 
	C516.371033,876.073425 515.613708,878.049988 515.153687,880.506592 
	C514.497375,884.011658 513.764709,887.502502 512.976074,891.372681 
	C508.106262,906.674805 505.126984,922.255127 496.624084,936.121216 
	C493.180969,940.475403 490.021118,944.648865 486.556946,948.912720 
	C485.153625,949.957947 484.054626,950.912781 482.617859,951.949097 
	C475.837555,957.002197 469.395020,961.973877 462.959412,966.948730 
	C462.966339,966.951904 462.941223,966.931763 462.581482,966.954468 
	C459.429657,968.959961 456.637634,970.942749 453.633453,972.932251 
	C453.421326,972.938965 453.000000,972.990479 452.688354,973.037720 
	C451.573456,973.705994 450.770172,974.327026 449.632507,975.018311 
	C447.461060,976.664795 445.624054,978.241150 443.441040,979.877197 
	C438.803467,982.251038 434.511810,984.565186 428.736145,987.679565 
	C428.736145,972.387207 428.736145,958.337036 428.736145,944.286926 
	C428.141205,944.092651 427.546234,943.898438 426.951294,943.704224 
	C422.974518,947.121948 419.094513,950.660583 415.003357,953.935425 
	C401.175232,965.004761 385.091003,972.133240 368.784302,978.236084 
	C348.267944,985.914551 327.147186,991.980591 306.272766,998.697510 
	C302.095764,1000.041626 297.853882,1001.184143 293.097168,1002.579407 
	C293.245361,1000.596436 293.151520,999.435059 293.437805,998.376526 
	C299.597992,975.597656 305.156982,952.629456 312.178711,930.117859 
	C319.012970,908.207458 329.198639,887.842407 346.019989,871.501892 
	C347.015228,870.535095 347.796387,869.347900 349.282013,867.518372 
	C334.486267,867.518372 320.731354,867.518372 306.397064,867.518372 
	C307.131104,865.740784 307.502228,864.484192 308.132019,863.374390 
	C312.649261,855.414062 317.144165,847.439514 321.785858,839.551697 
	C337.002838,813.692688 358.600128,796.288879 387.985809,788.621826 
	C398.542267,785.867493 408.678955,781.504333 419.007202,777.875427 
z"/>
<path fill="#F7A620" opacity="1.000000" stroke="none" 
	d="
M453.000000,972.990479 
	C453.000000,972.990479 453.421326,972.938965 454.088928,972.954285 
	C462.798096,973.031067 462.798096,973.031067 462.941223,966.931763 
	C462.941223,966.931763 462.966339,966.951904 463.383179,966.964722 
	C468.368958,965.822144 468.953339,969.520813 469.605530,971.496765 
	C472.388184,971.240662 474.495575,971.231689 476.520386,970.818115 
	C479.756287,970.157227 482.937134,969.226868 486.141693,968.412170 
	C487.202667,968.142517 488.255157,967.703491 489.328461,967.643127 
	C493.097351,967.431458 496.608276,966.696533 500.696655,968.099060 
	C502.979614,968.882263 506.976776,964.619568 510.238220,962.692810 
	C510.500916,962.537598 511.049805,962.866882 512.037598,963.114258 
	C510.682159,964.732727 509.592743,966.033508 507.513000,968.516724 
	C510.020447,968.516724 511.534851,968.703552 512.973328,968.453552 
	C513.999207,968.275269 514.922974,967.509949 515.892334,967.006531 
	C513.489502,971.275513 511.086609,975.544495 508.229156,979.606445 
	C503.388947,976.898132 499.003326,974.396973 493.612701,971.322632 
	C492.521393,972.947205 490.624237,975.771301 488.495392,978.940308 
	C487.547546,979.402466 484.695526,980.036133 484.566711,981.024536 
	C484.346466,982.714722 485.836731,984.625244 486.599365,986.447083 
	C486.961914,987.313171 487.818878,988.755676 487.577576,988.975037 
	C483.220764,992.934753 487.834595,996.516785 488.172791,1000.186707 
	C488.302490,1001.593994 490.743652,1002.788330 492.131561,1004.079712 
	C478.328461,1021.021301 462.096100,1035.239746 443.720337,1047.008667 
	C432.879272,1053.951904 421.941071,1060.745483 410.962891,1067.469849 
	C409.829437,1068.164185 408.124084,1067.924805 405.787048,1068.239502 
	C405.787048,1046.093750 405.787048,1024.305298 405.787048,1001.353943 
	C399.627441,1006.893738 394.531769,1011.461731 389.452332,1016.047668 
	C371.617645,1032.149536 351.593597,1044.710938 329.006042,1052.988647 
	C312.836487,1058.914307 296.627930,1064.754395 280.293091,1070.201904 
	C265.578400,1075.109131 250.668274,1079.430420 235.366730,1083.710205 
	C233.118469,1082.854858 231.161530,1081.518677 229.611572,1081.888428 
	C224.618515,1083.079590 219.811462,1085.031860 214.848526,1086.380981 
	C213.657166,1086.704712 211.817383,1086.192505 210.895340,1085.370117 
	C210.352066,1084.885620 210.750153,1082.921997 211.202316,1081.819336 
	C213.026367,1077.371216 215.405655,1073.893677 221.109909,1073.473633 
	C223.128387,1073.324951 226.654739,1069.992310 226.476105,1068.466553 
	C226.071838,1065.013550 227.325729,1060.555542 223.102020,1058.039062 
	C222.557449,1057.714478 222.867569,1055.368530 223.282364,1054.126099 
	C224.775879,1049.652466 226.483780,1045.250488 228.352432,1040.163208 
	C228.003754,1040.163208 228.846008,1040.023926 229.626099,1040.185181 
	C236.073715,1041.518677 236.280823,1041.320068 238.152451,1034.753662 
	C238.573608,1033.276123 239.896042,1032.073608 240.682968,1030.676514 
	C241.307861,1029.567017 241.748672,1028.353760 242.271240,1027.186646 
	C241.167587,1027.407471 240.065887,1027.638794 238.959793,1027.846680 
	C237.491150,1028.122803 236.019073,1028.380737 234.827026,1028.596191 
	C235.539261,1023.976501 236.583420,1020.295471 236.553131,1016.623169 
	C236.514694,1011.963135 235.518341,1007.317322 235.135956,1002.648926 
	C235.050934,1001.610901 235.545929,1000.297913 236.213593,999.463257 
	C240.013199,994.713806 243.946060,990.070984 248.783600,984.248413 
	C245.607910,984.248413 243.578674,984.248413 241.549454,984.248413 
	C241.316284,983.921143 241.083130,983.593872 240.849976,983.266663 
	C245.417770,979.931396 249.985565,976.596130 255.256775,972.747253 
	C252.350571,972.151367 250.508560,971.773682 248.111237,971.282104 
	C250.051147,968.405579 251.972061,966.107910 253.262787,963.498596 
	C254.749146,960.493713 256.471222,957.268311 256.694733,954.041931 
	C257.263824,945.826599 262.225739,938.883606 269.938019,938.505371 
	C274.360321,938.288452 274.890656,936.363647 275.008179,933.030579 
	C275.278137,925.373596 279.359375,921.785889 286.971313,920.814209 
	C290.666687,920.342529 295.182312,918.836060 297.411865,916.186707 
	C300.352631,912.692200 302.559021,909.518372 307.648041,909.645264 
	C308.562347,909.667969 309.722656,907.774353 310.358856,906.551819 
	C310.572418,906.141479 309.578125,904.459717 309.020172,904.397522 
	C305.930359,904.053162 302.334076,899.957214 299.796326,905.438110 
	C299.555145,905.958862 297.884003,905.817566 296.876770,905.983643 
	C296.903564,904.939514 296.604187,903.725098 297.038300,902.893616 
	C297.602661,901.812683 298.749969,901.036072 299.646362,900.128479 
	C299.389374,899.816223 299.132385,899.503906 298.875397,899.191650 
	C295.363037,901.184998 291.850677,903.178345 288.123413,905.293701 
	C284.298584,895.880005 295.232605,897.152710 296.637299,891.277466 
	C294.306793,891.960449 292.600281,892.460571 290.893768,892.960693 
	C290.238129,892.327637 289.576050,891.135620 288.927795,891.143066 
	C270.923340,891.350708 252.920319,891.681152 234.916977,891.986572 
	C233.755066,892.006287 232.570709,892.129028 231.435318,891.953979 
	C229.729263,891.690979 228.057297,891.206909 226.370850,890.816833 
	C227.014450,888.951172 227.658066,887.085510 228.647003,885.448425 
	C229.774734,886.690735 230.557114,887.704407 231.339508,888.718140 
	C233.078857,884.952332 234.905807,881.221741 236.452698,877.378418 
	C236.658813,876.866272 235.445038,875.782654 234.888763,874.963684 
	C235.871048,872.870667 236.853333,870.777649 238.244766,868.609131 
	C242.183533,870.780334 247.807709,869.176147 248.898300,876.317505 
	C249.343445,879.232422 255.589951,882.881836 261.165375,880.319458 
	C262.327637,879.785339 264.065155,880.568542 265.542633,880.641968 
	C269.299133,880.828613 273.058075,880.970642 276.816925,881.105591 
	C282.786102,881.319885 288.767212,881.358643 294.720642,881.786072 
	C297.445038,881.981628 300.018127,883.530762 302.508026,880.702637 
	C303.242981,879.867798 305.566406,880.431458 307.161865,880.354248 
	C305.296844,882.556885 303.092926,883.418335 301.403076,884.875793 
	C300.758118,885.432129 300.995728,888.401611 301.331573,888.496216 
	C306.185303,889.864563 310.449860,893.280823 315.816864,892.843140 
	C317.672974,892.691833 319.523041,892.467224 321.522736,892.260925 
	C320.669220,899.977905 319.745789,906.725159 314.498413,912.354126 
	C312.719086,914.262756 313.137787,918.223206 312.559875,921.247559 
	C312.349396,922.349060 312.276672,923.490723 311.944885,924.552795 
	C309.688446,931.775696 307.441620,939.002747 305.067017,946.187195 
	C303.321625,951.468018 301.771912,956.866211 299.428009,961.881653 
	C297.076202,966.913940 297.107361,973.093872 292.316925,977.015076 
	C291.926361,977.334778 292.418976,978.611877 292.312531,979.419189 
	C291.371033,986.557678 290.370544,993.688354 289.430023,1000.826965 
	C289.253021,1002.170532 289.265045,1003.538940 289.189850,1004.895935 
	C290.433624,1004.886292 291.735199,1005.114319 292.911682,1004.828186 
	C300.047424,1003.092651 307.086792,1000.880188 314.289276,999.521240 
	C322.466919,997.978333 330.304108,996.040527 337.717407,991.906433 
	C342.219849,989.395569 347.658752,988.513428 352.732361,987.098267 
	C355.351196,986.367859 358.090912,986.070984 360.776031,985.578186 
	C363.542969,985.085388 366.102509,984.298096 368.716217,984.020264 
	C370.306458,983.851135 372.078369,984.215759 373.588684,984.803284 
	C375.068420,985.378845 377.303162,987.510559 377.517548,987.293213 
	C379.380707,985.404541 380.949158,983.196777 382.415771,980.959656 
	C382.980133,980.098755 382.736206,978.349365 383.404938,977.973572 
	C387.845520,975.478271 392.294342,972.882141 397.027313,971.066650 
	C399.790710,970.006592 403.367767,971.009705 406.077820,969.881348 
	C410.778015,967.924438 419.506256,969.873108 422.718262,973.828857 
	C425.509766,977.266724 425.263733,980.869507 424.570923,984.673584 
	C423.972565,987.958984 424.538635,988.976135 428.500763,989.381958 
	C435.074158,990.055359 438.208923,983.850464 443.820557,983.104614 
	C443.952698,983.087097 443.804535,980.960449 443.787048,979.817505 
	C445.624054,978.241150 447.461060,976.664795 449.874512,975.228882 
	C451.300659,974.576416 452.150330,973.783447 453.000000,972.990479 
M250.942307,1069.920044 
	C253.511093,1069.536011 256.239807,1069.571411 258.610474,1068.667603 
	C261.991516,1067.378418 265.248627,1065.613525 268.287201,1063.635010 
	C270.030151,1062.500122 271.236511,1060.541016 272.684448,1058.953003 
	C270.827148,1058.120483 268.969818,1057.287964 267.780334,1056.754883 
	C266.971497,1051.584595 266.119781,1046.145264 265.273041,1040.705200 
	C265.247925,1040.543701 265.220642,1040.348999 265.284790,1040.212158 
	C268.069244,1034.271973 264.737366,1028.316040 265.358795,1022.380554 
	C265.466705,1021.349915 265.789154,1019.668640 266.362732,1019.503418 
	C267.468170,1019.184937 269.181976,1019.307800 270.010193,1020.002625 
	C272.766357,1022.314697 274.980469,1025.353882 277.931854,1027.319214 
	C279.472260,1028.345093 282.140686,1027.902344 284.255951,1027.689331 
	C284.821625,1027.632324 285.727753,1025.920898 285.625671,1025.071411 
	C284.863495,1018.728760 279.725616,1014.769836 273.217682,1014.773438 
	C271.793121,1014.774231 269.927490,1013.510803 269.024475,1012.274719 
	C266.207062,1008.418030 263.949951,1007.892639 260.530273,1011.018311 
	C258.565704,1012.813843 256.586151,1014.655762 254.980988,1016.757507 
	C254.051346,1017.974792 252.978088,1020.186890 253.482361,1021.192871 
	C255.168625,1024.556885 257.134735,1027.623657 254.433502,1031.308838 
	C259.182098,1036.249878 256.882050,1040.993896 254.168304,1045.833740 
	C253.773102,1046.538574 254.504837,1047.791382 254.390640,1048.752075 
	C253.888687,1052.974609 253.306763,1057.189331 252.638168,1061.388428 
	C252.558182,1061.890747 251.706238,1062.713867 251.323135,1062.655884 
	C247.356537,1062.054565 242.926422,1065.681641 239.286469,1061.277832 
	C238.800476,1060.689941 236.420471,1060.721924 235.888824,1061.324097 
	C234.934799,1062.404785 234.384689,1064.130737 234.359055,1065.599243 
	C234.348892,1066.181274 236.120300,1067.106567 237.196747,1067.340210 
	C241.477615,1068.269287 245.804337,1068.987183 250.942307,1069.920044 
M264.750336,993.410217 
	C264.518555,992.617249 264.416504,991.752747 264.026917,991.046814 
	C263.296448,989.723145 262.643768,988.026978 261.472168,987.410645 
	C260.856781,987.086975 258.924377,988.484619 258.081390,989.511230 
	C254.380585,994.018127 253.907501,1000.377319 257.818359,1004.404175 
	C259.217621,1005.844910 262.919067,1005.049805 265.569733,1005.275269 
	C265.408752,1001.544800 265.247772,997.814392 264.750336,993.410217 
M304.875702,1008.749451 
	C304.287964,1007.684143 303.700226,1006.618835 303.435425,1006.138855 
	C299.842926,1007.552185 296.865967,1008.717163 293.893829,1009.894287 
	C290.534180,1011.224976 289.447479,1013.698364 290.616669,1017.024841 
	C291.942047,1020.795654 294.178925,1019.465820 296.891296,1018.350952 
	C301.129272,1016.609070 303.248657,1013.358337 304.875702,1008.749451 
M233.764267,1059.043091 
	C235.095200,1055.918335 236.592560,1052.849487 237.673752,1049.640625 
	C238.095795,1048.387939 238.006042,1045.833374 237.415298,1045.579468 
	C235.603378,1044.800659 233.435867,1044.848999 231.406586,1044.575928 
	C231.573273,1045.999023 231.572998,1047.469482 231.960342,1048.829834 
	C232.261246,1049.886353 233.045731,1050.805420 233.667953,1051.876221 
	C232.289398,1053.317627 230.794067,1054.460083 229.906052,1055.961792 
	C229.342010,1056.915771 229.680557,1058.403442 229.614304,1059.651733 
	C230.873169,1059.666382 232.132050,1059.681152 233.764267,1059.043091 
M309.212891,1014.623108 
	C310.296875,1013.434509 311.729431,1012.403870 312.360718,1011.010193 
	C312.922394,1009.770203 312.596405,1008.128052 312.662201,1006.663391 
	C311.154114,1007.593140 309.023224,1008.196289 308.315552,1009.545776 
	C307.627533,1010.857910 308.398254,1012.934937 309.212891,1014.623108 
M466.885834,974.650635 
	C465.699585,975.683167 464.513306,976.715698 462.597717,978.382996 
	C468.300140,978.359314 468.854919,977.766663 466.885834,974.650635 
M277.777130,1033.609009 
	C276.457428,1033.453247 275.137695,1033.297607 273.818024,1033.141846 
	C274.144897,1034.118896 274.471771,1035.095825 274.798676,1036.072876 
	C275.811371,1035.476685 276.824066,1034.880371 277.777130,1033.609009 
M455.300629,987.957825 
	C455.275848,987.218811 455.251038,986.479797 455.226257,985.740784 
	C453.799805,986.559082 452.373352,987.377319 450.946869,988.195618 
	C451.241638,988.732910 451.536377,989.270203 451.831146,989.807556 
	C452.851288,989.366821 453.871460,988.926086 455.300629,987.957825 
M345.026215,1004.673218 
	C345.489014,1004.127380 345.951843,1003.581482 346.414642,1003.035645 
	C346.123322,1002.752014 345.832001,1002.468384 345.540649,1002.184692 
	C344.358124,1003.268799 343.175598,1004.352905 341.993042,1005.436951 
	C342.302765,1005.778503 342.612457,1006.119995 342.922180,1006.461487 
	C343.482178,1006.009338 344.042175,1005.557190 345.026215,1004.673218 
M319.780823,1011.321960 
	C319.233948,1010.723572 318.687103,1010.125183 318.140289,1009.526794 
	C317.864471,1010.207031 317.588623,1010.887329 317.312775,1011.567627 
	C318.065430,1011.689087 318.818085,1011.810608 319.780823,1011.321960 
M478.876862,1000.498962 
	C479.377716,1000.280029 479.878571,1000.061096 480.379425,999.842224 
	C479.976715,999.432495 479.574005,999.022766 479.171356,998.612976 
	C478.944794,999.110657 478.718201,999.608276 478.876862,1000.498962 
M304.753174,898.090576 
	C304.986725,898.536011 305.220276,898.981506 305.453857,899.426941 
	C305.786865,899.091187 306.119904,898.755432 306.452942,898.419739 
	C306.006348,898.189148 305.559723,897.958618 304.753174,898.090576 
M249.699646,994.505798 
	C249.387741,994.246582 249.075836,993.987366 248.763931,993.728149 
	C248.648331,994.140442 248.532715,994.552734 248.417130,994.965027 
	C248.806229,994.965271 249.195328,994.965515 249.699646,994.505798 
M301.789001,895.381836 
	C301.985352,895.219849 302.181702,895.057800 302.378052,894.895752 
	C302.280518,894.790527 302.182953,894.685303 302.085419,894.580078 
	C301.910492,894.765625 301.735596,894.951172 301.789001,895.381836 
M226.418442,1075.871704 
	C226.164810,1075.850586 225.911194,1075.829468 225.657578,1075.808228 
	C225.653870,1075.951904 225.650162,1076.095459 225.646454,1076.239136 
	C225.901031,1076.229492 226.155609,1076.219971 226.418442,1075.871704 
z"/>
<path fill="#F5A822" opacity="1.000000" stroke="none" 
	d="
M443.441101,979.877197 
	C443.804535,980.960449 443.952698,983.087097 443.820557,983.104614 
	C438.208923,983.850464 435.074158,990.055359 428.500763,989.381958 
	C424.538635,988.976135 423.972565,987.958984 424.570923,984.673584 
	C425.263733,980.869507 425.509766,977.266724 422.718262,973.828857 
	C419.506256,969.873108 410.778015,967.924438 406.077820,969.881348 
	C403.367767,971.009705 399.790710,970.006592 397.027313,971.066650 
	C392.294342,972.882141 387.845520,975.478271 383.404938,977.973572 
	C382.736206,978.349365 382.980133,980.098755 382.415771,980.959656 
	C380.949158,983.196777 379.380707,985.404541 377.517548,987.293213 
	C377.303162,987.510559 375.068420,985.378845 373.588684,984.803284 
	C372.078369,984.215759 370.306458,983.851135 368.716217,984.020264 
	C366.102509,984.298096 363.542969,985.085388 360.776031,985.578186 
	C358.090912,986.070984 355.351196,986.367859 352.732361,987.098267 
	C347.658752,988.513428 342.219849,989.395569 337.717407,991.906433 
	C330.304108,996.040527 322.466919,997.978333 314.289276,999.521240 
	C307.086792,1000.880188 300.047424,1003.092651 292.911682,1004.828186 
	C291.735199,1005.114319 290.433624,1004.886292 289.189850,1004.895935 
	C289.265045,1003.538940 289.253021,1002.170532 289.430023,1000.826965 
	C290.370544,993.688354 291.371033,986.557678 292.312531,979.419189 
	C292.418976,978.611877 291.926361,977.334778 292.316925,977.015076 
	C297.107361,973.093872 297.076202,966.913940 299.428009,961.881653 
	C301.771912,956.866211 303.321625,951.468018 305.067017,946.187195 
	C307.441620,939.002747 309.688446,931.775696 311.944885,924.552795 
	C312.276672,923.490723 312.349396,922.349060 312.559875,921.247559 
	C313.137787,918.223206 312.719086,914.262756 314.498413,912.354126 
	C319.745789,906.725159 320.669220,899.977905 321.522736,892.260925 
	C319.523041,892.467224 317.672974,892.691833 315.816864,892.843140 
	C310.449860,893.280823 306.185303,889.864563 301.331573,888.496216 
	C300.995728,888.401611 300.758118,885.432129 301.403076,884.875793 
	C303.092926,883.418335 305.296844,882.556885 307.161865,880.354248 
	C305.566406,880.431458 303.242981,879.867798 302.508026,880.702637 
	C300.018127,883.530762 297.445038,881.981628 294.720642,881.786072 
	C288.767212,881.358643 282.786102,881.319885 276.816925,881.105591 
	C273.058075,880.970642 269.299133,880.828613 265.542633,880.641968 
	C264.065155,880.568542 262.327637,879.785339 261.165375,880.319458 
	C255.589951,882.881836 249.343445,879.232422 248.898300,876.317505 
	C247.807709,869.176147 242.183533,870.780334 238.384369,868.284058 
	C244.374008,858.824585 250.239670,849.312012 257.015350,840.499084 
	C262.559235,833.288452 269.126465,826.854431 275.349762,820.178467 
	C285.915039,808.844727 298.156067,799.449524 311.657318,792.097351 
	C323.066833,785.884155 335.142975,780.738464 347.297394,776.098145 
	C357.492889,772.205688 368.180511,769.553040 378.739532,766.679565 
	C385.613281,764.808899 392.608398,763.291138 399.634888,762.137451 
	C401.500458,761.831116 404.136139,762.943970 405.634521,764.282471 
	C410.219543,768.378174 414.423492,772.900452 418.891418,777.566162 
	C408.678955,781.504333 398.542267,785.867493 387.985809,788.621826 
	C358.600128,796.288879 337.002838,813.692688 321.785858,839.551697 
	C317.144165,847.439514 312.649261,855.414062 308.132019,863.374390 
	C307.502228,864.484192 307.131104,865.740784 306.397064,867.518372 
	C320.731354,867.518372 334.486267,867.518372 349.282013,867.518372 
	C347.796387,869.347900 347.015228,870.535095 346.019989,871.501892 
	C329.198639,887.842407 319.012970,908.207458 312.178711,930.117859 
	C305.156982,952.629456 299.597992,975.597656 293.437805,998.376526 
	C293.151520,999.435059 293.245361,1000.596436 293.097168,1002.579407 
	C297.853882,1001.184143 302.095764,1000.041626 306.272766,998.697510 
	C327.147186,991.980591 348.267944,985.914551 368.784302,978.236084 
	C385.091003,972.133240 401.175232,965.004761 415.003357,953.935425 
	C419.094513,950.660583 422.974518,947.121948 426.951294,943.704224 
	C427.546234,943.898438 428.141205,944.092651 428.736145,944.286926 
	C428.736145,958.337036 428.736145,972.387207 428.736145,987.679565 
	C434.511810,984.565186 438.803467,982.251038 443.441101,979.877197 
M269.935272,873.464294 
	C269.208862,872.311157 268.482483,871.158020 267.022064,868.839600 
	C265.614868,872.807739 264.741821,875.269592 263.868774,877.731445 
	C264.380096,878.058228 264.891388,878.384949 265.402679,878.711670 
	C266.899994,877.210266 268.397278,875.708923 269.935272,873.464294 
z"/>
<path fill="#CAA02B" opacity="1.000000" stroke="none" 
	d="
M660.821960,625.924072 
	C660.320251,628.753784 660.053711,631.649841 659.277893,634.402283 
	C654.914917,649.881836 646.633118,663.386353 637.269470,676.189758 
	C627.519348,689.521545 617.939941,703.100952 606.946106,715.371643 
	C590.575500,733.643738 573.267639,751.100891 555.909912,768.456116 
	C540.948975,783.415100 525.556763,797.959839 509.983673,812.283691 
	C499.122406,822.273804 487.855652,831.856628 476.372040,841.128418 
	C459.746277,854.552124 442.938904,867.768372 425.833466,880.571350 
	C419.714966,885.150940 412.515594,888.291260 405.788696,892.051208 
	C402.148773,894.085754 398.464966,896.041870 394.425476,897.706970 
	C394.773193,895.974487 395.257538,894.362305 396.261841,893.198914 
	C400.111572,888.739014 404.128143,884.423096 408.367615,879.884888 
	C411.796692,876.192566 414.940643,872.668945 418.371826,869.036377 
	C419.117493,868.294006 419.575897,867.660522 420.028778,867.018433 
	C420.023254,867.009827 420.033813,867.037354 420.326202,866.877625 
	C428.779419,858.161011 436.940247,849.604126 445.377991,840.872253 
	C450.759033,835.444946 455.863068,830.192627 461.256256,824.776489 
	C463.429230,822.518982 465.236267,820.349915 467.208862,818.343567 
	C487.695648,797.504883 508.217316,776.700439 528.712585,755.870117 
	C547.954163,736.314026 567.141907,716.704834 586.417053,697.182007 
	C600.328918,683.091431 614.393372,669.151550 628.297913,655.053894 
	C637.518982,645.704773 646.565063,636.183105 655.722961,626.771301 
	C657.151917,625.302795 658.595337,622.999878 660.821960,625.924072 
z"/>
<path fill="#E6C553" opacity="1.000000" stroke="none" 
	d="
M660.882324,625.537781 
	C658.595337,622.999878 657.151917,625.302795 655.722961,626.771301 
	C646.565063,636.183105 637.518982,645.704773 628.297913,655.053894 
	C614.393372,669.151550 600.328918,683.091431 586.417053,697.182007 
	C567.141907,716.704834 547.954163,736.314026 528.712585,755.870117 
	C508.217316,776.700439 487.695648,797.504883 467.208862,818.343567 
	C465.236267,820.349915 463.429230,822.518982 461.090057,824.496582 
	C455.716125,819.905945 450.797485,815.431396 445.878845,810.956848 
	C449.960358,805.726685 453.838531,800.321045 458.167419,795.304382 
	C466.200592,785.994751 474.457611,776.876770 482.695862,767.746094 
	C489.679749,760.005737 496.632050,752.229431 503.837982,744.698303 
	C521.954285,725.764587 539.881042,706.632019 558.502319,688.204102 
	C574.520020,672.352783 591.358276,657.288940 610.376953,645.006165 
	C620.072693,638.744385 630.008850,632.780579 640.233582,627.443054 
	C645.407104,624.742371 651.500000,623.839172 657.107544,621.919922 
	C660.490295,620.762146 661.080444,622.397461 660.882324,625.537781 
z"/>
<path fill="#F5A822" opacity="1.000000" stroke="none" 
	d="
M290.542175,892.968506 
	C292.600281,892.460571 294.306793,891.960449 296.637299,891.277466 
	C295.232605,897.152710 284.298584,895.880005 288.123413,905.293701 
	C291.850677,903.178345 295.363037,901.184998 298.875397,899.191650 
	C299.132385,899.503906 299.389374,899.816223 299.646362,900.128479 
	C298.749969,901.036072 297.602661,901.812683 297.038300,902.893616 
	C296.604187,903.725098 296.903564,904.939514 296.876770,905.983643 
	C297.884003,905.817566 299.555145,905.958862 299.796326,905.438110 
	C302.334076,899.957214 305.930359,904.053162 309.020172,904.397522 
	C309.578125,904.459717 310.572418,906.141479 310.358856,906.551819 
	C309.722656,907.774353 308.562347,909.667969 307.648041,909.645264 
	C302.559021,909.518372 300.352631,912.692200 297.411865,916.186707 
	C295.182312,918.836060 290.666687,920.342529 286.971313,920.814209 
	C279.359375,921.785889 275.278137,925.373596 275.008179,933.030579 
	C274.890656,936.363647 274.360321,938.288452 269.938019,938.505371 
	C262.225739,938.883606 257.263824,945.826599 256.694733,954.041931 
	C256.471222,957.268311 254.749146,960.493713 253.262787,963.498596 
	C251.972061,966.107910 250.051147,968.405579 248.111237,971.282104 
	C250.508560,971.773682 252.350571,972.151367 255.256775,972.747253 
	C249.985565,976.596130 245.417770,979.931396 240.849976,983.266663 
	C241.083130,983.593872 241.316284,983.921143 241.549454,984.248413 
	C243.578674,984.248413 245.607910,984.248413 248.783600,984.248413 
	C243.946060,990.070984 240.013199,994.713806 236.213593,999.463257 
	C235.545929,1000.297913 235.050934,1001.610901 235.135956,1002.648926 
	C235.518341,1007.317322 236.514694,1011.963135 236.553131,1016.623169 
	C236.583420,1020.295471 235.539261,1023.976501 234.827026,1028.596191 
	C236.019073,1028.380737 237.491150,1028.122803 238.959793,1027.846680 
	C240.065887,1027.638794 241.167587,1027.407471 242.271240,1027.186646 
	C241.748672,1028.353760 241.307861,1029.567017 240.682968,1030.676514 
	C239.896042,1032.073608 238.573608,1033.276123 238.152451,1034.753662 
	C236.280823,1041.320068 236.073715,1041.518677 229.626099,1040.185181 
	C228.846008,1040.023926 228.003754,1040.163208 228.352432,1040.163208 
	C226.483780,1045.250488 224.775879,1049.652466 223.282364,1054.126099 
	C222.867569,1055.368530 222.557449,1057.714478 223.102020,1058.039062 
	C227.325729,1060.555542 226.071838,1065.013550 226.476105,1068.466553 
	C226.654739,1069.992310 223.128387,1073.324951 221.109909,1073.473633 
	C215.405655,1073.893677 213.026367,1077.371216 211.202316,1081.819336 
	C210.750153,1082.921997 210.352066,1084.885620 210.895340,1085.370117 
	C211.817383,1086.192505 213.657166,1086.704712 214.848526,1086.380981 
	C219.811462,1085.031860 224.618515,1083.079590 229.611572,1081.888428 
	C231.161530,1081.518677 233.118469,1082.854858 234.972168,1083.770142 
	C225.781769,1087.018066 216.508270,1089.906128 206.850159,1092.913940 
	C204.499756,1087.283203 207.261002,1082.157837 208.444778,1077.203003 
	C211.610107,1063.953979 215.428802,1050.858276 219.114655,1037.737183 
	C224.388947,1018.961548 229.614929,1000.169373 235.208755,981.488281 
	C236.983963,975.559692 239.683334,969.878174 242.282562,964.232117 
	C247.784485,952.280823 252.937485,940.113647 259.340485,928.653442 
	C263.072815,921.973267 268.788086,916.351196 273.899200,910.504883 
	C279.146973,904.502258 284.745544,898.806396 290.542175,892.968506 
z"/>
<path fill="#F5A822" opacity="1.000000" stroke="none" 
	d="
M515.948364,966.626831 
	C514.922974,967.509949 513.999207,968.275269 512.973328,968.453552 
	C511.534851,968.703552 510.020447,968.516724 507.513000,968.516724 
	C509.592743,966.033508 510.682159,964.732727 512.037598,963.114258 
	C511.049805,962.866882 510.500916,962.537598 510.238220,962.692810 
	C506.976776,964.619568 502.979614,968.882263 500.696655,968.099060 
	C496.608276,966.696533 493.097351,967.431458 489.328461,967.643127 
	C488.255157,967.703491 487.202667,968.142517 486.141693,968.412170 
	C482.937134,969.226868 479.756287,970.157227 476.520386,970.818115 
	C474.495575,971.231689 472.388184,971.240662 469.605530,971.496765 
	C468.953339,969.520813 468.368958,965.822144 463.376251,966.961548 
	C469.395020,961.973877 475.837555,957.002197 482.635132,952.365356 
	C483.819031,957.372131 486.671661,959.802856 491.223969,958.162964 
	C493.124664,957.478333 493.859192,953.556519 495.205566,950.948486 
	C491.538239,950.014099 489.199768,949.418213 486.861267,948.822388 
	C490.021118,944.648865 493.180969,940.475403 496.925873,936.300293 
	C499.388092,937.891541 501.346222,939.400574 503.112854,941.107788 
	C504.217133,942.174927 505.175110,943.459351 505.939697,944.794617 
	C506.794373,946.287048 507.356140,947.947266 508.045410,949.534485 
	C509.708374,948.628418 511.839203,948.097229 512.931702,946.733948 
	C514.878540,944.304260 516.197693,941.371643 517.969543,938.322021 
	C509.004700,939.723145 512.533386,931.961365 509.801758,927.645630 
	C512.559509,926.933105 514.742859,926.285156 516.963867,925.814758 
	C520.268311,925.114929 521.671875,923.460938 522.283508,919.822205 
	C523.136536,914.746704 518.908875,913.442200 516.818542,910.695435 
	C514.982666,908.282959 514.331543,906.681519 516.673523,904.386536 
	C518.260254,902.831482 519.512634,900.935181 520.308044,899.945862 
	C522.960266,897.575256 525.578064,896.149902 526.792908,893.949768 
	C528.987244,889.975586 527.553406,886.364319 523.977478,883.576965 
	C521.747742,881.839111 520.314819,881.272034 518.713074,884.605042 
	C517.527710,887.071655 514.996399,888.891479 513.064697,890.999390 
	C513.764709,887.502502 514.497375,884.011658 515.153687,880.506592 
	C515.613708,878.049988 516.371033,876.073425 519.870178,877.020874 
	C524.622131,880.966919 529.557556,884.475586 533.184387,889.027039 
	C535.019897,891.330383 535.440247,895.695984 534.854858,898.820984 
	C532.991882,908.767334 530.317810,918.559937 528.029541,928.428772 
	C525.031433,941.358887 521.305664,954.052002 515.948364,966.626831 
z"/>
<path fill="#E7C64E" opacity="1.000000" stroke="none" 
	d="
M445.101074,841.047241 
	C436.940247,849.604126 428.779419,858.161011 420.316101,866.458191 
	C420.491333,862.169678 418.891998,859.978455 414.651337,859.854797 
	C413.374573,859.817505 412.112823,859.264954 410.844208,858.948486 
	C417.331512,849.354492 423.818817,839.760498 430.853333,830.284668 
	C432.852997,831.857056 434.877258,833.061096 435.644592,834.815063 
	C437.523712,839.110352 440.566406,841.065796 445.101074,841.047241 
z"/>
<path fill="#E7CA5B" opacity="1.000000" stroke="none" 
	d="
M445.378052,840.872314 
	C440.566406,841.065796 437.523712,839.110352 435.644592,834.815063 
	C434.877258,833.061096 432.852997,831.857056 431.172485,830.144226 
	C435.047150,824.334534 439.149902,818.783447 443.783630,812.958008 
	C444.529144,812.414673 444.743683,812.145752 444.958191,811.876831 
	C444.972473,811.530640 445.126678,811.266052 445.649841,811.019958 
	C450.797485,815.431396 455.716125,819.905945 460.800934,824.660400 
	C455.863068,830.192627 450.759033,835.444946 445.378052,840.872314 
z"/>
<path fill="#F5A822" opacity="1.000000" stroke="none" 
	d="
M492.454193,1003.937866 
	C490.743652,1002.788330 488.302490,1001.593994 488.172791,1000.186707 
	C487.834595,996.516785 483.220764,992.934753 487.577576,988.975037 
	C487.818878,988.755676 486.961914,987.313171 486.599365,986.447083 
	C485.836731,984.625244 484.346466,982.714722 484.566711,981.024536 
	C484.695526,980.036133 487.547546,979.402466 488.495392,978.940308 
	C490.624237,975.771301 492.521393,972.947205 493.612701,971.322632 
	C499.003326,974.396973 503.388947,976.898132 507.906433,979.755493 
	C505.314850,984.227966 502.554413,988.320557 499.878998,992.468018 
	C497.463287,996.212830 495.140564,1000.017639 492.454193,1003.937866 
z"/>
<path fill="#E7CA5B" opacity="1.000000" stroke="none" 
	d="
M410.529358,859.103821 
	C412.112823,859.264954 413.374573,859.817505 414.651337,859.854797 
	C418.891998,859.978455 420.491333,862.169678 420.023743,866.617920 
	C420.033813,867.037354 420.023254,867.009827 419.719055,867.091919 
	C418.971405,867.831177 418.528015,868.488220 418.084595,869.145325 
	C414.940643,872.668945 411.796692,876.192566 407.950989,879.845825 
	C404.467926,879.628723 401.686676,879.281982 398.905396,878.935181 
	C402.675110,872.376526 406.444794,865.817810 410.529358,859.103821 
z"/>
<path fill="#E7C64E" opacity="1.000000" stroke="none" 
	d="
M398.581726,879.093750 
	C401.686676,879.281982 404.467926,879.628723 407.665863,880.014526 
	C404.128143,884.423096 400.111572,888.739014 396.261841,893.198914 
	C395.257538,894.362305 394.773193,895.974487 394.053253,897.753845 
	C393.138336,898.715210 392.220245,899.303406 390.581390,900.353271 
	C389.336426,891.437683 395.865234,886.059265 398.581726,879.093750 
z"/>
<path fill="#F5A822" opacity="1.000000" stroke="none" 
	d="
M234.570129,875.103821 
	C235.445038,875.782654 236.658813,876.866272 236.452698,877.378418 
	C234.905807,881.221741 233.078857,884.952332 231.339508,888.718140 
	C230.557114,887.704407 229.774734,886.690735 228.977386,885.289185 
	C230.725449,881.682251 232.488464,878.463135 234.570129,875.103821 
z"/>
<path fill="#E6C553" opacity="1.000000" stroke="none" 
	d="
M444.702576,811.970947 
	C444.743683,812.145752 444.529144,812.414673 444.095886,812.823425 
	C444.067108,812.663818 444.257019,812.364441 444.702576,811.970947 
z"/>

<path fill="#F7A620" opacity="1.000000" stroke="none" 
	d="
M512.976074,891.372681 
	C514.996399,888.891479 517.527710,887.071655 518.713074,884.605042 
	C520.314819,881.272034 521.747742,881.839111 523.977478,883.576965 
	C527.553406,886.364319 528.987244,889.975586 526.792908,893.949768 
	C525.578064,896.149902 522.960266,897.575256 520.308044,899.945862 
	C519.512634,900.935181 518.260254,902.831482 516.673523,904.386536 
	C514.331543,906.681519 514.982666,908.282959 516.818542,910.695435 
	C518.908875,913.442200 523.136536,914.746704 522.283508,919.822205 
	C521.671875,923.460938 520.268311,925.114929 516.963867,925.814758 
	C514.742859,926.285156 512.559509,926.933105 509.801758,927.645630 
	C512.533386,931.961365 509.004700,939.723145 517.969543,938.322021 
	C516.197693,941.371643 514.878540,944.304260 512.931702,946.733948 
	C511.839203,948.097229 509.708374,948.628418 508.045410,949.534485 
	C507.356140,947.947266 506.794373,946.287048 505.939697,944.794617 
	C505.175110,943.459351 504.217133,942.174927 503.112854,941.107788 
	C501.346222,939.400574 499.388092,937.891541 497.209106,936.119690 
	C505.126984,922.255127 508.106262,906.674805 512.976074,891.372681 
z"/>
<path fill="#F7A620" opacity="1.000000" stroke="none" 
	d="
M486.556946,948.912720 
	C489.199768,949.418213 491.538239,950.014099 495.205566,950.948486 
	C493.859192,953.556519 493.124664,957.478333 491.223969,958.162964 
	C486.671661,959.802856 483.819031,957.372131 482.972870,952.283875 
	C484.054626,950.912781 485.153625,949.957947 486.556946,948.912720 
z"/>
<path fill="#F5A822" opacity="1.000000" stroke="none" 
	d="
M462.581482,966.954468 
	C462.798096,973.031067 462.798096,973.031067 454.301086,972.947571 
	C456.637634,970.942749 459.429657,968.959961 462.581482,966.954468 
z"/>
<path fill="#F5A822" opacity="1.000000" stroke="none" 
	d="
M452.688354,973.037720 
	C452.150330,973.783447 451.300659,974.576416 450.208954,975.158752 
	C450.770172,974.327026 451.573456,973.705994 452.688354,973.037720 
z"/>
<path fill="#F5A822" opacity="1.000000" stroke="none" 
	d="
M250.528198,1069.851685 
	C245.804337,1068.987183 241.477615,1068.269287 237.196747,1067.340210 
	C236.120300,1067.106567 234.348892,1066.181274 234.359055,1065.599243 
	C234.384689,1064.130737 234.934799,1062.404785 235.888824,1061.324097 
	C236.420471,1060.721924 238.800476,1060.689941 239.286469,1061.277832 
	C242.926422,1065.681641 247.356537,1062.054565 251.323135,1062.655884 
	C251.706238,1062.713867 252.558182,1061.890747 252.638168,1061.388428 
	C253.306763,1057.189331 253.888687,1052.974609 254.390640,1048.752075 
	C254.504837,1047.791382 253.773102,1046.538574 254.168304,1045.833740 
	C256.882050,1040.993896 259.182098,1036.249878 254.433502,1031.308838 
	C257.134735,1027.623657 255.168625,1024.556885 253.482361,1021.192871 
	C252.978088,1020.186890 254.051346,1017.974792 254.980988,1016.757507 
	C256.586151,1014.655762 258.565704,1012.813843 260.530273,1011.018311 
	C263.949951,1007.892639 266.207062,1008.418030 269.024475,1012.274719 
	C269.927490,1013.510803 271.793121,1014.774231 273.217682,1014.773438 
	C279.725616,1014.769836 284.863495,1018.728760 285.625671,1025.071411 
	C285.727753,1025.920898 284.821625,1027.632324 284.255951,1027.689331 
	C282.140686,1027.902344 279.472260,1028.345093 277.931854,1027.319214 
	C274.980469,1025.353882 272.766357,1022.314697 270.010193,1020.002625 
	C269.181976,1019.307800 267.468170,1019.184937 266.362732,1019.503418 
	C265.789154,1019.668640 265.466705,1021.349915 265.358795,1022.380554 
	C264.737366,1028.316040 268.069244,1034.271973 265.284790,1040.212158 
	C265.220642,1040.348999 265.247925,1040.543701 265.273041,1040.705200 
	C266.119781,1046.145264 266.971497,1051.584595 267.780334,1056.754883 
	C268.969818,1057.287964 270.827148,1058.120483 272.684448,1058.953003 
	C271.236511,1060.541016 270.030151,1062.500122 268.287201,1063.635010 
	C265.248627,1065.613525 261.991516,1067.378418 258.610474,1068.667603 
	C256.239807,1069.571411 253.511093,1069.536011 250.528198,1069.851685 
z"/>
<path fill="#F5A822" opacity="1.000000" stroke="none" 
	d="
M264.918579,993.747070 
	C265.247772,997.814392 265.408752,1001.544800 265.569733,1005.275269 
	C262.919067,1005.049805 259.217621,1005.844910 257.818359,1004.404175 
	C253.907501,1000.377319 254.380585,994.018127 258.081390,989.511230 
	C258.924377,988.484619 260.856781,987.086975 261.472168,987.410645 
	C262.643768,988.026978 263.296448,989.723145 264.026917,991.046814 
	C264.416504,991.752747 264.518555,992.617249 264.918579,993.747070 
z"/>
<path fill="#F5A822" opacity="1.000000" stroke="none" 
	d="
M304.864044,1009.104675 
	C303.248657,1013.358337 301.129272,1016.609070 296.891296,1018.350952 
	C294.178925,1019.465820 291.942047,1020.795654 290.616669,1017.024841 
	C289.447479,1013.698364 290.534180,1011.224976 293.893829,1009.894287 
	C296.865967,1008.717163 299.842926,1007.552185 303.435425,1006.138855 
	C303.700226,1006.618835 304.287964,1007.684143 304.864044,1009.104675 
z"/>
<path fill="#F5A822" opacity="1.000000" stroke="none" 
	d="
M233.577591,1059.369385 
	C232.132050,1059.681152 230.873169,1059.666382 229.614288,1059.651733 
	C229.680557,1058.403442 229.342010,1056.915771 229.906052,1055.961792 
	C230.794067,1054.460083 232.289398,1053.317627 233.667953,1051.876221 
	C233.045731,1050.805420 232.261246,1049.886353 231.960342,1048.829834 
	C231.572998,1047.469482 231.573273,1045.999023 231.406586,1044.575928 
	C233.435867,1044.848999 235.603378,1044.800659 237.415298,1045.579468 
	C238.006042,1045.833374 238.095795,1048.387939 237.673752,1049.640625 
	C236.592560,1052.849487 235.095200,1055.918335 233.577591,1059.369385 
z"/>
<path fill="#F5A822" opacity="1.000000" stroke="none" 
	d="
M308.870636,1014.649597 
	C308.398254,1012.934937 307.627533,1010.857910 308.315552,1009.545776 
	C309.023224,1008.196289 311.154114,1007.593140 312.662201,1006.663391 
	C312.596405,1008.128052 312.922394,1009.770203 312.360718,1011.010193 
	C311.729431,1012.403870 310.296875,1013.434509 308.870636,1014.649597 
z"/>
<path fill="#F5A822" opacity="1.000000" stroke="none" 
	d="
M467.205750,974.582458 
	C468.854919,977.766663 468.300140,978.359314 462.597717,978.382996 
	C464.513306,976.715698 465.699585,975.683167 467.205750,974.582458 
z"/>
<path fill="#F5A822" opacity="1.000000" stroke="none" 
	d="
M277.806946,1033.946533 
	C276.824066,1034.880371 275.811371,1035.476685 274.798676,1036.072876 
	C274.471771,1035.095825 274.144897,1034.118896 273.817993,1033.141846 
	C275.137695,1033.297607 276.457428,1033.453247 277.806946,1033.946533 
z"/>
<path fill="#F5A822" opacity="1.000000" stroke="none" 
	d="
M455.096130,988.221619 
	C453.871460,988.926086 452.851288,989.366821 451.831146,989.807556 
	C451.536377,989.270203 451.241638,988.732910 450.946869,988.195618 
	C452.373352,987.377319 453.799805,986.559082 455.226257,985.740784 
	C455.251038,986.479797 455.275848,987.218811 455.096130,988.221619 
z"/>
<path fill="#F5A822" opacity="1.000000" stroke="none" 
	d="
M344.814209,1004.889160 
	C344.042175,1005.557190 343.482178,1006.009338 342.922180,1006.461487 
	C342.612457,1006.119995 342.302765,1005.778503 341.993042,1005.436951 
	C343.175598,1004.352905 344.358124,1003.268799 345.540649,1002.184692 
	C345.832001,1002.468384 346.123322,1002.752014 346.414642,1003.035645 
	C345.951843,1003.581482 345.489014,1004.127380 344.814209,1004.889160 
z"/>
<path fill="#F5A822" opacity="1.000000" stroke="none" 
	d="
M319.675781,1011.627075 
	C318.818085,1011.810608 318.065430,1011.689087 317.312775,1011.567627 
	C317.588623,1010.887329 317.864471,1010.207031 318.140259,1009.526855 
	C318.687103,1010.125183 319.233948,1010.723572 319.675781,1011.627075 
z"/>
<path fill="#F5A822" opacity="1.000000" stroke="none" 
	d="
M478.684265,1000.302429 
	C478.718201,999.608276 478.944794,999.110657 479.171326,998.612976 
	C479.574005,999.022766 479.976715,999.432495 480.379456,999.842163 
	C479.878571,1000.061096 479.377716,1000.280029 478.684265,1000.302429 
z"/>
<path fill="#F5A822" opacity="1.000000" stroke="none" 
	d="
M304.933167,897.909302 
	C305.559723,897.958618 306.006348,898.189148 306.452942,898.419739 
	C306.119904,898.755432 305.786865,899.091187 305.453857,899.426941 
	C305.220276,898.981506 304.986725,898.536011 304.933167,897.909302 
z"/>
<path fill="#F5A822" opacity="1.000000" stroke="none" 
	d="
M249.642029,994.735779 
	C249.195328,994.965515 248.806229,994.965271 248.417114,994.965027 
	C248.532715,994.552734 248.648331,994.140442 248.763931,993.728149 
	C249.075836,993.987366 249.387741,994.246582 249.642029,994.735779 
z"/>
<path fill="#F5A822" opacity="1.000000" stroke="none" 
	d="
M301.674866,895.259277 
	C301.735596,894.951172 301.910492,894.765625 302.085388,894.580078 
	C302.182953,894.685303 302.280518,894.790527 302.378052,894.895752 
	C302.181702,895.057800 301.985352,895.219849 301.674866,895.259277 
z"/>
<path fill="#F5A822" opacity="1.000000" stroke="none" 
	d="
M226.414307,1076.041016 
	C226.155609,1076.219971 225.901031,1076.229492 225.646454,1076.239136 
	C225.650162,1076.095459 225.653870,1075.951904 225.657578,1075.808228 
	C225.911194,1075.829468 226.164810,1075.850586 226.414307,1076.041016 
z"/>
<path fill="#F7A620" opacity="1.000000" stroke="none" 
	d="
M269.914917,873.835938 
	C268.397278,875.708923 266.899994,877.210266 265.402679,878.711670 
	C264.891388,878.384949 264.380096,878.058228 263.868774,877.731445 
	C264.741821,875.269592 265.614868,872.807739 267.022064,868.839600 
	C268.482483,871.158020 269.208862,872.311157 269.914917,873.835938 
z"/>
<path fill="#E7C64E" opacity="1.000000" stroke="none" 
	d="
M418.371826,869.036377 
	C418.528015,868.488220 418.971405,867.831177 419.724548,867.100586 
	C419.575897,867.660522 419.117493,868.294006 418.371826,869.036377 
z"/>
</svg>